<mxfile host="app.diagrams.net" agent="Mozilla/5.0 (Windows NT 10.0; Win64; x64) AppleWebKit/537.36 (KHTML, like Gecko) Chrome/139.0.0.0 Safari/537.36" version="28.1.2">
  <diagram name="Page-1" id="ghHuUJhSAjiochQpL_aG">
    <mxGraphModel dx="1079" dy="439" grid="1" gridSize="10" guides="1" tooltips="1" connect="1" arrows="1" fold="1" page="1" pageScale="1" pageWidth="827" pageHeight="1169" math="0" shadow="0">
      <root>
        <mxCell id="0" />
        <mxCell id="1" parent="0" />
        <mxCell id="zSfUzWa33Ars75lfI0BR-1" value="" style="rounded=1;whiteSpace=wrap;html=1;" vertex="1" parent="1">
          <mxGeometry x="80" y="40" width="630" height="360" as="geometry" />
        </mxCell>
        <mxCell id="zSfUzWa33Ars75lfI0BR-15" style="edgeStyle=orthogonalEdgeStyle;rounded=0;orthogonalLoop=1;jettySize=auto;html=1;entryX=0;entryY=0.5;entryDx=0;entryDy=0;" edge="1" parent="1" source="zSfUzWa33Ars75lfI0BR-3" target="zSfUzWa33Ars75lfI0BR-4">
          <mxGeometry relative="1" as="geometry" />
        </mxCell>
        <mxCell id="zSfUzWa33Ars75lfI0BR-3" value="Newspaper3k&lt;div&gt;(Web scraping)&lt;/div&gt;" style="rounded=1;whiteSpace=wrap;html=1;" vertex="1" parent="1">
          <mxGeometry x="350" y="160" width="110" height="70" as="geometry" />
        </mxCell>
        <mxCell id="zSfUzWa33Ars75lfI0BR-16" style="edgeStyle=orthogonalEdgeStyle;rounded=0;orthogonalLoop=1;jettySize=auto;html=1;entryX=0.5;entryY=0;entryDx=0;entryDy=0;" edge="1" parent="1" source="zSfUzWa33Ars75lfI0BR-4" target="zSfUzWa33Ars75lfI0BR-5">
          <mxGeometry relative="1" as="geometry" />
        </mxCell>
        <mxCell id="zSfUzWa33Ars75lfI0BR-4" value="Pytesseract&lt;div&gt;(Image Scraping)&lt;/div&gt;" style="rounded=1;whiteSpace=wrap;html=1;" vertex="1" parent="1">
          <mxGeometry x="530" y="160" width="110" height="70" as="geometry" />
        </mxCell>
        <mxCell id="zSfUzWa33Ars75lfI0BR-17" style="edgeStyle=orthogonalEdgeStyle;rounded=0;orthogonalLoop=1;jettySize=auto;html=1;entryX=1;entryY=0.5;entryDx=0;entryDy=0;" edge="1" parent="1" source="zSfUzWa33Ars75lfI0BR-5" target="zSfUzWa33Ars75lfI0BR-6">
          <mxGeometry relative="1" as="geometry" />
        </mxCell>
        <mxCell id="zSfUzWa33Ars75lfI0BR-5" value="Textblob&lt;div&gt;(Sentiment Analysis)&lt;/div&gt;" style="rounded=1;whiteSpace=wrap;html=1;" vertex="1" parent="1">
          <mxGeometry x="530" y="280" width="110" height="70" as="geometry" />
        </mxCell>
        <mxCell id="zSfUzWa33Ars75lfI0BR-8" value="" style="rounded=1;whiteSpace=wrap;html=1;" vertex="1" parent="1">
          <mxGeometry x="110" y="120" width="170" height="250" as="geometry" />
        </mxCell>
        <mxCell id="zSfUzWa33Ars75lfI0BR-18" style="edgeStyle=orthogonalEdgeStyle;rounded=0;orthogonalLoop=1;jettySize=auto;html=1;entryX=1;entryY=0.5;entryDx=0;entryDy=0;" edge="1" parent="1" source="zSfUzWa33Ars75lfI0BR-6" target="zSfUzWa33Ars75lfI0BR-7">
          <mxGeometry relative="1" as="geometry" />
        </mxCell>
        <mxCell id="zSfUzWa33Ars75lfI0BR-6" value="Visual Graph Generation" style="rounded=1;whiteSpace=wrap;html=1;" vertex="1" parent="1">
          <mxGeometry x="350" y="280" width="110" height="70" as="geometry" />
        </mxCell>
        <mxCell id="zSfUzWa33Ars75lfI0BR-7" value="Presentation" style="rounded=1;whiteSpace=wrap;html=1;" vertex="1" parent="1">
          <mxGeometry x="150" y="280" width="110" height="70" as="geometry" />
        </mxCell>
        <mxCell id="zSfUzWa33Ars75lfI0BR-14" style="edgeStyle=orthogonalEdgeStyle;rounded=0;orthogonalLoop=1;jettySize=auto;html=1;entryX=0;entryY=0.5;entryDx=0;entryDy=0;" edge="1" parent="1" source="zSfUzWa33Ars75lfI0BR-9" target="zSfUzWa33Ars75lfI0BR-3">
          <mxGeometry relative="1" as="geometry" />
        </mxCell>
        <mxCell id="zSfUzWa33Ars75lfI0BR-9" value="Posts&lt;div&gt;(Sample Data)&lt;/div&gt;" style="rounded=1;whiteSpace=wrap;html=1;" vertex="1" parent="1">
          <mxGeometry x="150" y="160" width="110" height="70" as="geometry" />
        </mxCell>
        <mxCell id="zSfUzWa33Ars75lfI0BR-13" value="User Interface" style="text;html=1;align=center;verticalAlign=middle;whiteSpace=wrap;rounded=0;" vertex="1" parent="1">
          <mxGeometry x="160" y="90" width="90" height="30" as="geometry" />
        </mxCell>
        <mxCell id="zSfUzWa33Ars75lfI0BR-19" value="On-Trigger" style="text;html=1;align=center;verticalAlign=middle;whiteSpace=wrap;rounded=0;" vertex="1" parent="1">
          <mxGeometry x="270" y="200" width="90" height="30" as="geometry" />
        </mxCell>
      </root>
    </mxGraphModel>
  </diagram>
</mxfile>
